<?xml version="1.0" encoding="utf-8"?>
<!-- Generator: Adobe Illustrator 15.0.0, SVG Export Plug-In  -->
<!DOCTYPE svg PUBLIC "-//W3C//DTD SVG 1.1//EN" "http://www.w3.org/Graphics/SVG/1.1/DTD/svg11.dtd" [
	<!ENTITY ns_flows "http://ns.adobe.com/Flows/1.0/">
]>
<svg version="1.1"
	 xmlns="http://www.w3.org/2000/svg" xmlns:xlink="http://www.w3.org/1999/xlink" xmlns:a="http://ns.adobe.com/AdobeSVGViewerExtensions/3.0/"
	 x="0px" y="0px" width="500px" height="500px" viewBox="-7.523 -14.045 500 500" enable-background="new -7.523 -14.045 500 500"
	 xml:space="preserve">
<defs>
</defs>
<line fill="none" stroke="#E6E6E6" stroke-miterlimit="10" x1="9.591" y1="9.591" x2="138.568" y2="25.5"/>
<line fill="none" stroke="#E6E6E6" stroke-miterlimit="10" x1="138.568" y1="25.5" x2="81.75" y2="150.5"/>
<line fill="none" stroke="#E6E6E6" stroke-miterlimit="10" x1="81.75" y1="150.5" x2="190.272" y2="83.455"/>
<line fill="none" stroke="#E6E6E6" stroke-miterlimit="10" x1="190.272" y1="83.455" x2="273.795" y2="92.545"/>
<line fill="none" stroke="#E6E6E6" stroke-miterlimit="10" x1="273.795" y1="92.545" x2="328.34" y2="30.045"/>
<line fill="none" stroke="#E6E6E6" stroke-miterlimit="10" x1="328.34" y1="30.045" x2="436.295" y2="9.591"/>
<line fill="none" stroke="#E6E6E6" stroke-miterlimit="10" x1="432.318" y1="10.344" x2="402.205" y2="88"/>
<line fill="none" stroke="#E6E6E6" stroke-miterlimit="10" x1="328.34" y1="30.045" x2="306.181" y2="163"/>
<line fill="none" stroke="#E6E6E6" stroke-miterlimit="10" x1="273.795" y1="92.545" x2="306.181" y2="163"/>
<line fill="none" stroke="#E6E6E6" stroke-miterlimit="10" x1="190.272" y1="83.455" x2="178.341" y2="163"/>
<line fill="none" stroke="#E6E6E6" stroke-miterlimit="10" x1="178.341" y1="163" x2="124.363" y2="214.705"/>
<line fill="none" stroke="#E6E6E6" stroke-miterlimit="10" x1="81.75" y1="150.5" x2="124.363" y2="214.705"/>
<line fill="none" stroke="#E6E6E6" stroke-miterlimit="10" x1="124.363" y1="214.705" x2="256.181" y2="248.795"/>
<line fill="none" stroke="#E6E6E6" stroke-miterlimit="10" x1="253.367" y1="248.795" x2="306.181" y2="163"/>
<line fill="none" stroke="#E6E6E6" stroke-miterlimit="10" x1="306.181" y1="163" x2="402.205" y2="88"/>
<line fill="none" stroke="#E6E6E6" stroke-miterlimit="10" x1="402.205" y1="88" x2="436.295" y2="132.886"/>
<line fill="none" stroke="#E6E6E6" stroke-miterlimit="10" x1="436.295" y1="132.886" x2="390.273" y2="201.068"/>
<line fill="none" stroke="#E6E6E6" stroke-miterlimit="10" x1="253.367" y1="248.795" x2="348.227" y2="280.045"/>
<line fill="none" stroke="#E6E6E6" stroke-miterlimit="10" x1="348.227" y1="280.045" x2="436.295" y2="292.545"/>
<line fill="none" stroke="#E6E6E6" stroke-miterlimit="10" x1="436.295" y1="292.545" x2="390.273" y2="201.068"/>
<line fill="none" stroke="#E6E6E6" stroke-miterlimit="10" x1="348.227" y1="280.045" x2="266.477" y2="348.795"/>
<line fill="none" stroke="#E6E6E6" stroke-miterlimit="10" x1="266.477" y1="348.795" x2="142.545" y2="328.909"/>
<line fill="none" stroke="#E6E6E6" stroke-miterlimit="10" x1="39.704" y1="288.568" x2="142.545" y2="328.909"/>
<line fill="none" stroke="#E6E6E6" stroke-miterlimit="10" x1="39.704" y1="288.568" x2="124.363" y2="214.705"/>
<line fill="none" stroke="#E6E6E6" stroke-miterlimit="10" x1="124.363" y1="214.705" x2="142.545" y2="328.909"/>
<line fill="none" stroke="#E6E6E6" stroke-miterlimit="10" x1="142.545" y1="328.909" x2="174.932" y2="388"/>
<line fill="none" stroke="#E6E6E6" stroke-miterlimit="10" x1="174.932" y1="388" x2="64.704" y2="385.159"/>
<line fill="none" stroke="#E6E6E6" stroke-miterlimit="10" x1="64.704" y1="385.159" x2="126.636" y2="433.455"/>
<line fill="none" stroke="#E6E6E6" stroke-miterlimit="10" x1="126.636" y1="433.455" x2="251.068" y2="407.318"/>
<line fill="none" stroke="#E6E6E6" stroke-miterlimit="10" x1="251.068" y1="407.318" x2="174.932" y2="388"/>
<line fill="none" stroke="#E6E6E6" stroke-miterlimit="10" x1="251.068" y1="407.318" x2="266.477" y2="348.795"/>
<line fill="none" stroke="#E6E6E6" stroke-miterlimit="10" x1="266.477" y1="348.795" x2="359.023" y2="394.25"/>
<line fill="none" stroke="#E6E6E6" stroke-miterlimit="10" x1="359.023" y1="394.25" x2="428.34" y2="433.455"/>
<line fill="none" stroke="#E6E6E6" stroke-miterlimit="10" x1="428.34" y1="433.455" x2="348.227" y2="280.045"/>
<line fill="none" stroke="#E6E6E6" stroke-miterlimit="10" x1="359.023" y1="394.25" x2="436.295" y2="292.545"/>
<line fill="none" stroke="#E6E6E6" stroke-miterlimit="10" x1="253.367" y1="248.795" x2="142.545" y2="328.909"/>
<circle fill="#828282" stroke="#828282" stroke-miterlimit="10" cx="9.591" cy="9.591" r="9.091"/>
<circle fill="#828282" stroke="#828282" stroke-miterlimit="10" cx="190.272" cy="83.455" r="15.341"/>
<circle fill="#828282" stroke="#828282" stroke-miterlimit="10" cx="138.568" cy="25.5" r="4.545"/>
<circle fill="#828282" stroke="#828282" stroke-miterlimit="10" cx="328.34" cy="30.045" r="6.818"/>
<circle fill="#828282" stroke="#828282" stroke-miterlimit="10" cx="402.205" cy="88" r="4.546"/>
<circle fill="#828282" stroke="#828282" stroke-miterlimit="10" cx="432.318" cy="9.591" r="3.978"/>
<circle fill="#828282" stroke="#828282" stroke-miterlimit="10" cx="273.795" cy="92.545" r="6.25"/>
<circle fill="#828282" stroke="#828282" stroke-miterlimit="10" cx="81.75" cy="150.5" r="5.682"/>
<circle fill="#828282" stroke="#828282" stroke-miterlimit="10" cx="306.181" cy="163" r="5.682"/>
<circle fill="#828282" stroke="#828282" stroke-miterlimit="10" cx="251.068" cy="248.795" r="12.5"/>
<circle fill="#828282" stroke="#828282" stroke-miterlimit="10" cx="39.704" cy="288.568" r="3.978"/>
<circle fill="#828282" stroke="#828282" stroke-miterlimit="10" cx="390.273" cy="201.068" r="5.113"/>
<circle fill="#828282" stroke="#828282" stroke-miterlimit="10" cx="436.295" cy="132.886" r="3.409"/>
<circle fill="#828282" stroke="#828282" stroke-miterlimit="10" cx="436.295" cy="292.545" r="9.091"/>
<circle fill="#828282" stroke="#828282" stroke-miterlimit="10" cx="142.545" cy="328.909" r="3.978"/>
<circle fill="#828282" stroke="#828282" stroke-miterlimit="10" cx="124.363" cy="214.705" r="8.523"/>
<circle fill="#828282" stroke="#828282" stroke-miterlimit="10" cx="178.341" cy="163" r="5.682"/>
<circle fill="#828282" stroke="#828282" stroke-miterlimit="10" cx="348.227" cy="280.045" r="4.546"/>
<circle fill="#828282" stroke="#828282" stroke-miterlimit="10" cx="263.568" cy="348.795" r="7.387"/>
<circle fill="#828282" stroke="#828282" stroke-miterlimit="10" cx="359.023" cy="394.25" r="6.25"/>
<circle fill="#828282" stroke="#828282" stroke-miterlimit="10" cx="174.932" cy="388" r="9.659"/>
<circle fill="#828282" stroke="#828282" stroke-miterlimit="10" cx="64.704" cy="385.159" r="2.842"/>
<circle fill="#828282" stroke="#828282" stroke-miterlimit="10" cx="126.636" cy="433.455" r="5.682"/>
<circle fill="#828282" stroke="#828282" stroke-miterlimit="10" cx="251.068" cy="407.318" r="7.955"/>
<circle fill="#828282" stroke="#828282" stroke-miterlimit="10" cx="428.34" cy="433.455" r="5.682"/>
</svg>
